<svg width="150" height="35" viewBox="0 0 150 35" fill="none" xmlns="http://www.w3.org/2000/svg">
<path d="M71.9166 10.4136H73.7633V28.2294H84.6288V29.8055H71.9166V10.4136Z" fill="#052049"/>
<path d="M86.208 10.4136H87.919V13.1564H86.208V10.4136ZM86.208 15.7909H87.919V29.8045H86.208V15.7909Z" fill="#052049"/>
<mask id="mask0_11_3" style="mask-type:luminance" maskUnits="userSpaceOnUse" x="0" y="0" width="150" height="35">
<path d="M150 0.592285H0V34.9923H150V0.592285Z" fill="white"/>
</mask>
<g mask="url(#mask0_11_3)">
<path d="M91.2064 10.4136H92.9174V18.4527H92.9721C93.7056 16.4428 95.7436 15.3844 97.8343 15.3844C102.098 15.3844 104.136 18.8323 104.136 22.7979C104.136 26.7626 102.098 30.212 97.8343 30.212C95.5796 30.212 93.6241 29.0428 92.8364 27.1422H92.7828V29.804H91.2069V10.4136H91.2064ZM97.8343 16.8229C94.1946 16.8229 92.9174 19.8912 92.9174 22.7979C92.9174 25.7032 94.1946 28.772 97.8343 28.772C101.094 28.772 102.425 25.7032 102.425 22.7979C102.425 19.8912 101.094 16.8229 97.8343 16.8229Z" fill="#052049"/>
</g>
<mask id="mask1_11_3" style="mask-type:luminance" maskUnits="userSpaceOnUse" x="0" y="0" width="150" height="35">
<path d="M150 0.592285H0V34.9923H150V0.592285Z" fill="white"/>
</mask>
<g mask="url(#mask1_11_3)">
<path d="M106.802 15.7913H108.378V19.0772H108.432C109.301 16.8238 111.203 15.4917 113.729 15.601V17.3127C110.632 17.1488 108.513 19.4305 108.513 22.3372V29.8049H106.802V15.7913Z" fill="#052049"/>
</g>
<mask id="mask2_11_3" style="mask-type:luminance" maskUnits="userSpaceOnUse" x="0" y="0" width="150" height="35">
<path d="M150 0.592285H0V34.9923H150V0.592285Z" fill="white"/>
</mask>
<g mask="url(#mask2_11_3)">
<path d="M115.198 20.0823C115.361 16.7964 117.67 15.3843 120.875 15.3843C123.347 15.3843 126.036 16.144 126.036 19.892V27.3339C126.036 27.9858 126.362 28.3654 127.041 28.3654C127.232 28.3654 127.448 28.3112 127.584 28.2561V29.6951C127.205 29.7766 126.932 29.8044 126.47 29.8044C124.732 29.8044 124.461 28.8275 124.461 27.3602H124.406C123.212 29.1798 121.99 30.2123 119.3 30.2123C116.72 30.2123 114.601 28.9353 114.601 26.1105C114.601 22.1732 118.432 22.0376 122.125 21.6038C123.538 21.4398 124.325 21.2505 124.325 19.7017C124.325 17.3942 122.668 16.8242 120.658 16.8242C118.539 16.8242 116.965 17.8016 116.909 20.0828L115.198 20.0823ZM124.324 22.1464H124.27C124.053 22.5533 123.292 22.6895 122.832 22.771C119.925 23.2863 116.313 23.2599 116.313 26.0032C116.313 27.714 117.833 28.7728 119.436 28.7728C122.044 28.7728 124.351 27.1157 124.325 24.3724L124.324 22.1464Z" fill="#052049"/>
</g>
<mask id="mask3_11_3" style="mask-type:luminance" maskUnits="userSpaceOnUse" x="0" y="0" width="150" height="35">
<path d="M150 0.592285H0V34.9923H150V0.592285Z" fill="white"/>
</mask>
<g mask="url(#mask3_11_3)">
<path d="M129.462 15.7913H131.038V19.0772H131.091C131.961 16.8238 133.862 15.4917 136.388 15.601V17.3127C133.292 17.1488 131.172 19.4305 131.172 22.3372V29.8049H129.46V15.7913H129.462Z" fill="#052049"/>
</g>
<mask id="mask4_11_3" style="mask-type:luminance" maskUnits="userSpaceOnUse" x="0" y="0" width="150" height="35">
<path d="M150 0.592285H0V34.9923H150V0.592285Z" fill="white"/>
</mask>
<g mask="url(#mask4_11_3)">
<path d="M137.532 15.791H139.353L143.969 27.7411L148.289 15.791H150L143.916 31.9507C142.937 34.3134 142.368 34.9907 140.222 34.9907C139.543 34.9643 139.19 34.9643 138.918 34.8565V33.4175C139.326 33.499 139.706 33.5527 140.087 33.5527C141.608 33.5527 141.961 32.6568 142.533 31.352L143.129 29.751L137.532 15.791Z" fill="#052049"/>
</g>
<mask id="mask5_11_3" style="mask-type:luminance" maskUnits="userSpaceOnUse" x="0" y="0" width="150" height="35">
<path d="M150 0.592285H0V34.9923H150V0.592285Z" fill="white"/>
</mask>
<g mask="url(#mask5_11_3)">
<path d="M61.4568 13.4644V9.7627H47.3738V23.4016C47.2991 21.8045 46.7154 20.5631 45.61 19.6917C44.8472 19.089 43.6989 18.6079 42.1675 18.2473L38.6752 17.4231C37.3272 17.1084 36.4454 16.8352 36.032 16.6004C35.6494 16.3926 35.382 16.1227 35.2273 15.7904L35.2248 15.7919C35.2238 15.788 35.2238 15.7856 35.2229 15.7836C35.1184 15.5562 35.0589 15.2898 35.0589 15.0053C35.0589 14.3963 35.2678 13.8772 35.7021 13.4692V13.4683C35.7119 13.4595 35.7207 13.4507 35.7309 13.4429V13.4419C35.7309 13.4409 35.7309 13.4409 35.7319 13.4419C35.8266 13.355 35.931 13.2736 36.0452 13.1979C36.7006 12.7656 37.5771 12.5504 38.6752 12.5504C39.6629 12.5504 40.4887 12.7163 41.1539 13.0496C42.1499 13.5541 42.6843 14.4032 42.759 15.6011H46.7549C46.6822 13.4868 45.896 11.8731 44.3973 10.7606C42.8986 9.65048 41.0865 9.09372 38.9646 9.09372C36.4224 9.09372 34.4947 9.68317 33.1819 10.8626C32.3762 11.5872 31.8189 12.4269 31.5075 13.3794H31.5051C31.4392 13.5849 31.3831 13.7981 31.3391 14.0138C30.8521 16.3091 29.3743 17.8667 26.9025 17.8667C22.9475 17.8667 21.461 14.5017 21.461 11.1641C21.461 7.65815 22.9475 4.29368 26.9025 4.29368C29.0908 4.29368 30.997 5.8083 31.2777 7.7977H35.5415C35.0096 3.17187 31.3064 0.591064 26.9025 0.591064C20.9905 0.591064 17.4035 4.7997 17.0839 10.3473V1.06779H12.6789V13.52C12.6789 16.4936 11.6682 17.8667 8.52681 17.8667C4.9647 17.8667 4.40249 15.707 4.40249 13.52V1.06779H0V13.52C0 18.9602 3.14143 21.5698 8.52681 21.5698C13.8863 21.5698 17.0839 18.9334 17.0839 13.52V11.959C17.4035 17.3602 20.9905 21.5698 26.9025 21.5698C29.3324 21.5698 31.404 20.7857 32.9325 19.3896C33.0267 19.4662 33.1239 19.5414 33.2259 19.6102C34.0189 20.1596 35.4737 20.6676 37.5913 21.136L39.7454 21.6093C41.0065 21.8787 41.9279 22.1885 42.5096 22.5403C43.0889 22.8995 43.3793 23.4084 43.3793 24.0652C43.3793 25.1909 42.7878 25.9595 41.6014 26.3733C40.9767 26.5894 40.1632 26.6973 39.1603 26.6973C37.4888 26.6973 36.3068 26.2874 35.6186 25.4681C35.2414 25.0182 34.9876 24.3395 34.8598 23.4304H30.8906C30.8906 25.5008 31.6407 27.1267 33.1414 28.3104C34.6436 29.4942 36.704 30.0856 39.3242 30.0856C41.8903 30.0856 43.8751 29.4859 45.2816 28.2841C46.5734 27.1779 47.2703 25.8116 47.3738 24.1857V29.787H51.7787V21.5127H60.1659V18.0912H51.7787V13.4629H61.4568V13.4644Z" fill="#052049"/>
</g>
</svg>